<svg xmlns="http://www.w3.org/2000/svg" xmlns:xlink="http://www.w3.org/1999/xlink" width="500" zoomAndPan="magnify" viewBox="50 125 275 100.999991" height="500" preserveAspectRatio="xMidYMid meet" version="1.0"><defs><g/><clipPath id="39dce3845a"><path d="M 217 147.796875 L 277 147.796875 L 277 212.296875 L 217 212.296875 Z M 217 147.796875 " clip-rule="nonzero"/></clipPath></defs><rect x="-37.5" width="450" fill="#ffffff" y="-37.499999" height="449.999989" fill-opacity="1"/><rect x="-37.5" width="450" fill="#ffffff" y="-37.499999" height="449.999989" fill-opacity="1"/><rect x="-37.5" width="450" fill="#1c2120" y="-37.499999" height="449.999989" fill-opacity="1"/><path stroke-linecap="butt" transform="matrix(0.748875, 0, 0, 0.75, 91.066859, 202.976017)" fill="none" stroke-linejoin="miter" d="M -0.000603933 6.000728 L 156.249421 6.000728 " stroke="#ffffff" stroke-width="12" stroke-opacity="1" stroke-miterlimit="4"/><g clip-path="url(#39dce3845a)"><path fill="#ffffff" d="M 275.269531 163.921875 C 272.742188 159.570312 266.996094 157.753906 259.8125 158.351562 C 256.738281 151.835938 252.261719 147.796875 247.203125 147.796875 C 242.140625 147.796875 237.667969 151.835938 234.59375 158.351562 C 227.410156 157.753906 221.660156 159.570312 219.136719 163.921875 C 216.609375 168.277344 217.90625 174.144531 222.03125 180.046875 C 217.90625 185.945312 216.609375 191.8125 219.136719 196.171875 C 221.351562 199.992188 226.039062 201.875 232.011719 201.875 C 232.851562 201.875 233.714844 201.835938 234.601562 201.761719 C 237.675781 208.265625 242.148438 212.296875 247.203125 212.296875 C 252.257812 212.296875 256.730469 208.265625 259.800781 201.761719 C 260.6875 201.835938 261.554688 201.875 262.390625 201.875 C 268.363281 201.875 273.050781 199.992188 275.269531 196.171875 C 277.796875 191.8125 276.496094 185.945312 272.375 180.046875 C 276.496094 174.144531 277.796875 168.277344 275.269531 163.921875 Z M 262.5 161.0625 C 267.382812 161.0625 271.164062 162.457031 272.828125 165.324219 C 274.660156 168.484375 273.628906 172.964844 270.550781 177.648438 C 268.410156 175.101562 266.03125 172.796875 263.417969 170.738281 C 262.933594 167.449219 262.121094 164.246094 260.976562 161.128906 C 261.488281 161.101562 262.007812 161.0625 262.5 161.0625 Z M 254.246094 192.1875 C 251.976562 193.492188 249.625 194.632812 247.203125 195.617188 C 242.332031 193.636719 237.816406 191.042969 233.648438 187.832031 C 232.9375 182.640625 232.9375 177.449219 233.648438 172.257812 C 237.8125 169.046875 242.332031 166.453125 247.203125 164.480469 C 252.074219 166.453125 256.589844 169.046875 260.753906 172.257812 C 261.46875 177.449219 261.46875 182.640625 260.753906 187.832031 C 258.683594 189.429688 256.515625 190.882812 254.246094 192.1875 Z M 260.0625 191.824219 C 259.566406 194.164062 258.886719 196.453125 258.015625 198.683594 C 255.636719 198.316406 253.304688 197.761719 251.015625 197.015625 C 252.558594 196.289062 254.109375 195.507812 255.65625 194.617188 C 257.203125 193.730469 258.660156 192.789062 260.0625 191.824219 Z M 243.386719 197.015625 C 241.097656 197.761719 238.765625 198.316406 236.390625 198.679688 C 235.519531 196.453125 234.835938 194.164062 234.34375 191.824219 C 235.746094 192.789062 237.203125 193.730469 238.75 194.617188 C 240.296875 195.507812 241.84375 196.289062 243.386719 197.015625 Z M 230.503906 185.21875 C 228.722656 183.628906 227.078125 181.90625 225.578125 180.046875 C 227.078125 178.1875 228.722656 176.460938 230.503906 174.871094 C 230.367188 176.554688 230.292969 178.28125 230.292969 180.046875 C 230.292969 181.8125 230.367188 183.539062 230.503906 185.21875 Z M 234.34375 168.269531 C 234.835938 165.929688 235.515625 163.648438 236.382812 161.425781 C 238.757812 161.785156 241.085938 162.335938 243.371094 163.082031 C 241.832031 163.804688 240.289062 164.585938 238.75 165.472656 C 237.203125 166.363281 235.746094 167.304688 234.34375 168.269531 Z M 251.035156 163.082031 C 253.316406 162.335938 255.648438 161.785156 258.023438 161.425781 C 258.890625 163.648438 259.570312 165.929688 260.0625 168.269531 C 258.660156 167.304688 257.203125 166.363281 255.65625 165.472656 C 254.113281 164.585938 252.570312 163.804688 251.035156 163.082031 Z M 263.902344 174.871094 C 265.683594 176.460938 267.324219 178.1875 268.828125 180.046875 C 267.324219 181.90625 265.683594 183.628906 263.902344 185.21875 C 264.039062 183.539062 264.109375 181.8125 264.109375 180.046875 C 264.109375 178.28125 264.039062 176.554688 263.902344 174.871094 Z M 247.203125 150.601562 C 250.871094 150.601562 254.253906 153.730469 256.792969 158.726562 C 253.503906 159.296875 250.308594 160.195312 247.203125 161.417969 C 244.097656 160.195312 240.902344 159.296875 237.613281 158.726562 C 240.152344 153.730469 243.535156 150.601562 247.203125 150.601562 Z M 221.578125 165.324219 C 223.242188 162.453125 227.019531 161.0625 231.90625 161.0625 C 232.394531 161.0625 232.917969 161.101562 233.425781 161.128906 C 232.285156 164.246094 231.46875 167.449219 230.988281 170.738281 C 228.375 172.796875 225.996094 175.101562 223.855469 177.648438 C 220.773438 172.964844 219.742188 168.484375 221.578125 165.324219 Z M 221.578125 194.769531 C 219.742188 191.609375 220.773438 187.128906 223.855469 182.441406 C 225.996094 184.992188 228.375 187.296875 230.988281 189.355469 C 231.46875 192.644531 232.285156 195.847656 233.429688 198.96875 C 227.816406 199.277344 223.410156 197.925781 221.578125 194.769531 Z M 247.203125 209.492188 C 243.539062 209.492188 240.15625 206.367188 237.617188 201.375 C 240.90625 200.796875 244.097656 199.890625 247.203125 198.660156 C 250.304688 199.890625 253.5 200.796875 256.785156 201.375 C 254.25 206.367188 250.867188 209.492188 247.203125 209.492188 Z M 272.828125 194.769531 C 270.996094 197.925781 266.585938 199.277344 260.972656 198.96875 C 262.121094 195.847656 262.933594 192.644531 263.417969 189.355469 C 266.03125 187.296875 268.410156 184.992188 270.550781 182.441406 C 273.628906 187.128906 274.660156 191.609375 272.828125 194.769531 Z M 272.828125 194.769531 " fill-opacity="1" fill-rule="nonzero"/></g><path fill="#ffffff" d="M 256.257812 172.414062 L 249.316406 168.421875 C 248.660156 168.050781 247.957031 167.863281 247.203125 167.863281 C 246.449219 167.863281 245.742188 168.050781 245.089844 168.421875 L 238.144531 172.414062 C 237.492188 172.785156 236.980469 173.300781 236.601562 173.949219 C 236.222656 174.601562 236.035156 175.304688 236.03125 176.054688 L 236.03125 184.035156 C 236.035156 184.789062 236.222656 185.488281 236.601562 186.140625 C 236.980469 186.792969 237.492188 187.304688 238.144531 187.679688 L 245.089844 191.667969 C 245.742188 192.042969 246.449219 192.230469 247.203125 192.230469 C 247.957031 192.230469 248.660156 192.042969 249.316406 191.667969 L 256.257812 187.679688 C 256.910156 187.304688 257.425781 186.792969 257.804688 186.140625 C 258.179688 185.488281 258.371094 184.789062 258.371094 184.035156 L 258.371094 176.054688 C 258.371094 175.304688 258.179688 174.601562 257.804688 173.949219 C 257.425781 173.300781 256.910156 172.785156 256.257812 172.414062 Z M 255.554688 184.035156 C 255.554688 184.574219 255.320312 184.980469 254.851562 185.25 L 247.90625 189.238281 C 247.4375 189.507812 246.96875 189.507812 246.496094 189.238281 L 239.554688 185.25 C 239.085938 184.980469 238.851562 184.574219 238.851562 184.035156 L 238.851562 176.054688 C 238.851562 175.515625 239.085938 175.109375 239.554688 174.839844 L 246.496094 170.851562 C 246.96875 170.582031 247.4375 170.582031 247.90625 170.851562 L 254.851562 174.839844 C 255.320312 175.109375 255.554688 175.515625 255.554688 176.054688 Z M 255.554688 184.035156 " fill-opacity="1" fill-rule="nonzero"/><path fill="#ffffff" d="M 247.203125 174.4375 C 246.835938 174.441406 246.472656 174.476562 246.113281 174.554688 C 245.753906 174.628906 245.40625 174.734375 245.070312 174.878906 C 244.730469 175.023438 244.410156 175.195312 244.109375 175.402344 C 243.804688 175.609375 243.523438 175.84375 243.265625 176.105469 C 243.007812 176.367188 242.78125 176.652344 242.578125 176.957031 C 242.375 177.265625 242.207031 177.589844 242.066406 177.929688 C 241.929688 178.269531 241.824219 178.621094 241.757812 178.980469 C 241.6875 179.34375 241.652344 179.707031 241.65625 180.074219 C 241.65625 180.441406 241.695312 180.808594 241.765625 181.167969 C 241.839844 181.527344 241.949219 181.875 242.089844 182.214844 C 242.230469 182.554688 242.40625 182.875 242.609375 183.179688 C 242.816406 183.488281 243.046875 183.769531 243.308594 184.027344 C 243.566406 184.285156 243.851562 184.515625 244.15625 184.71875 C 244.460938 184.921875 244.785156 185.09375 245.125 185.234375 C 245.460938 185.375 245.8125 185.480469 246.171875 185.550781 C 246.53125 185.621094 246.894531 185.65625 247.261719 185.65625 C 247.628906 185.652344 247.992188 185.617188 248.351562 185.542969 C 248.710938 185.472656 249.058594 185.363281 249.398438 185.222656 C 249.734375 185.082031 250.054688 184.910156 250.359375 184.703125 C 250.664062 184.5 250.945312 184.265625 251.207031 184.007812 C 251.464844 183.746094 251.695312 183.464844 251.898438 183.15625 C 252.101562 182.851562 252.273438 182.527344 252.414062 182.1875 C 252.554688 181.847656 252.660156 181.5 252.730469 181.136719 C 252.804688 180.777344 252.839844 180.414062 252.839844 180.046875 C 252.835938 179.675781 252.800781 179.308594 252.726562 178.949219 C 252.652344 178.585938 252.542969 178.234375 252.402344 177.894531 C 252.257812 177.550781 252.085938 177.230469 251.878906 176.921875 C 251.671875 176.617188 251.4375 176.332031 251.175781 176.070312 C 250.914062 175.8125 250.628906 175.578125 250.324219 175.375 C 250.015625 175.171875 249.691406 175 249.351562 174.859375 C 249.011719 174.71875 248.660156 174.613281 248.296875 174.542969 C 247.9375 174.472656 247.570312 174.4375 247.203125 174.4375 Z M 247.203125 182.851562 C 246.832031 182.847656 246.476562 182.773438 246.136719 182.628906 C 245.792969 182.484375 245.496094 182.28125 245.234375 182.015625 C 244.972656 181.75 244.773438 181.449219 244.636719 181.101562 C 244.496094 180.757812 244.425781 180.402344 244.429688 180.03125 C 244.429688 179.660156 244.503906 179.304688 244.644531 178.960938 C 244.789062 178.617188 244.992188 178.316406 245.253906 178.054688 C 245.519531 177.792969 245.820312 177.59375 246.164062 177.449219 C 246.503906 177.308594 246.863281 177.238281 247.230469 177.242188 C 247.601562 177.242188 247.957031 177.3125 248.300781 177.457031 C 248.640625 177.597656 248.941406 177.800781 249.203125 178.066406 C 249.464844 178.328125 249.667969 178.632812 249.808594 178.972656 C 249.949219 179.316406 250.019531 179.675781 250.019531 180.046875 C 250.019531 180.417969 249.945312 180.777344 249.800781 181.121094 C 249.65625 181.464844 249.453125 181.769531 249.191406 182.03125 C 248.925781 182.296875 248.621094 182.496094 248.277344 182.640625 C 247.933594 182.78125 247.574219 182.851562 247.203125 182.851562 Z M 247.203125 182.851562 " fill-opacity="1" fill-rule="nonzero"/><g fill="#ffffff" fill-opacity="1"><g transform="translate(91.066859, 195.260788)"><g><path d="M 17.109375 -12.78125 L 13.390625 -8.8125 L 13.390625 0 L 3.53125 0 L 3.53125 -35.234375 L 13.390625 -35.234375 L 13.390625 -20.59375 L 27.03125 -35.234375 L 38.015625 -35.234375 L 23.609375 -19.640625 L 38.765625 0 L 27.1875 0 Z M 17.109375 -12.78125 "/></g></g></g><g fill="#ffffff" fill-opacity="1"><g transform="translate(133.305645, 195.260788)"><g><path d="M 31.8125 -7.703125 L 31.8125 0 L 3.53125 0 L 3.53125 -35.234375 L 31.15625 -35.234375 L 31.15625 -27.53125 L 13.390625 -27.53125 L 13.390625 -21.59375 L 29.046875 -21.59375 L 29.046875 -14.140625 L 13.390625 -14.140625 L 13.390625 -7.703125 Z M 31.8125 -7.703125 "/></g></g></g><g fill="#ffffff" fill-opacity="1"><g transform="translate(171.516936, 195.260788)"><g><path d="M 37.046875 -35.234375 L 37.046875 0 L 28.84375 0 L 13.296875 -18.78125 L 13.296875 0 L 3.53125 0 L 3.53125 -35.234375 L 11.734375 -35.234375 L 27.28125 -16.46875 L 27.28125 -35.234375 Z M 37.046875 -35.234375 "/></g></g></g></svg>